<svg id="Livello_1" data-name="Livello 1" xmlns="http://www.w3.org/2000/svg" viewBox="0 0 1800 485.19"><path d="M1468.73,340.69V385.9l-2.81,2.81h-26.86l-2.71-2.71V155.2c0-2.94-.73-6.16,3.6-8.27,14.87,0,30.66-.68,46.37.24,10.87.63,20,6.61,26.57,15.32,3.78,5,5.1,11.18,6.58,17.47,2,8.61,1.47,17,1.53,25.48.21,29.92.08,59.84.08,89.76a33.36,33.36,0,0,1-1.73,11.36c-1.09,3.13-1.3,6.77-2.12,10.2-2,8.36-7.94,13.25-14.3,17.7-5.9,4.14-12.9,6.5-19.84,7.9C1478.94,343.2,1474.27,341.43,1468.73,340.69Zm-.1-160.47v3.25c0,37.92.08,75.85-.12,113.77a22.57,22.57,0,0,0,2.63,10.23,15.3,15.3,0,0,0,12.91,2.58l4.54-4.54V182.2c-4.83-6-11.1-5.18-17.1-4.84Z"/><path d="M320.33,307c-5.14,12.1-11.61,22.92-23.55,28.89L287.45,340c-3.81,1.76-8.58-1.55-11.64,2-2.06-.54-3.83-1.34-5.62-1.41a37.55,37.55,0,0,1-26.5-11.53c-4.33-4.42-9.44-8.28-11.68-14.31-2-5.31-4-10.7-4-16.46-.06-51.76-.27-103.52.18-155.28A52,52,0,0,1,235.57,116C243,103.92,252.7,95.74,267.7,96.54c21.29,1.14,39.93,8.63,56.22,24.06-7.82,6.45-9.26,16.59-17.14,22.86-2.64-1.07-5.47-1.75-7.78-3.22-13.76-8.76-15.63-9.44-30.08-9.44l-8.69,10.42V298.85c3.41,6.06,9.37,7.68,15.29,9.87l10.61-5.21c2.88-3.39,2.31-8,2.31-12.55q0-31.23,0-62.43c-4.29-2.75-10.34,1.83-13.94-3.84v-19.5c2-.58,4.07-1.66,6.14-1.69,13.08-.16,26.17-.08,39.11-.08,2.76,3.76,3.06,7.81,3,12.11-.12,24.2.11,48.4-.17,72.6C322.55,294.55,321.1,301,320.33,307Z"/><path d="M990.4,149V113l27.27-15.45c.74,1.66,1.44,3.22,3.09,6.94,0,74.6,0,152.24,0,229.87,0,2.95.7,6.16-3.57,8.25-13.56,0-28,.88-42.37-.24-15.26-1.18-28.51-9.41-34.55-25.91a34.24,34.24,0,0,1-2.4-12.2c.31-39,.07-78,.24-117,.06-13.91,6.84-24.42,18-32.3,5-3.51,10.25-6.17,16.65-6.16,2.41,0,4.81-1.71,7.24-1.76,2.06,0,4.11,1.33,6.23,1.82A20,20,0,0,0,990.4,149Zm-19.72,35V307.66l2.42,2.43h15.14V184.32l-4.67-5.06h-8.25Z"/><path d="M1617.92,246.8c0,19.5.12,39,0,58.5-.17,21.65-13.84,33.64-31.76,39.13-11.49,3.53-28.25-1.42-37.28-9.43-8.51-7.55-13.33-17.54-13.45-28.62-.47-41-.24-82-.15-123,0-8.62,3.78-16,9.25-22.34,5.72-6.61,12.31-11.63,21.24-14.44,8.72-2.74,17-2.44,24.52.72,8.17,3.46,16.48,7.47,21.52,16.3,3.62,6.35,5.87,12.8,6,19.68C1618.17,204.44,1617.92,225.62,1617.92,246.8Zm-32.62,63.61V181.9l-2.44-2.43h-12.6l-2.59,2.58v124.4l5.13,6.54Z"/><path d="M1222.5,174.59c1.46-2.45,3.32-4.47,3.93-6.81,1.69-6.47,6.16-11.16,11.19-14.29,4.56-2.84,8.7-8.11,15.34-6.56,16.15-4,17.68-2.9,30.89,4,11,5.77,19.55,16.47,19.46,31-.3,45-.11,89.95-.11,134.28-2.69,7.38-7.1,12.81-12.41,17.67-7.33,6.71-15.7,10.51-25.77,10.81-8.22.24-15.81-1-22.91-5.57-11.76-7.6-19.68-17.19-19.64-32C1222.57,262.8,1222.5,218.5,1222.5,174.59Zm45.76,5h-10.8L1253,184V307.61c9.87,6.59,9.8,6.65,19.75,0V184.09Z"/><path d="M1347.27,298.24h4.16l16.35,12h13.29l6.32-7.26c.76-2,2-4.22,2.49-6.63,1-4.85-1-15.07-3.38-20.74-3.68-8.89-7-17.92-10.75-26.8-3.62-8.59-6.6-17.5-10.33-26-5.14-11.67-9.6-23.6-14.45-35.36-3.55-8.6-7.71-17-10.09-26.07-1.29-4.87-3.51-9.5-3.44-14.73,0-2.18.89-4.6-1.47-6.5-.71-.57-.84-2.66-.41-3.72,2.25-5.59,1.47-11.86,4.42-17.34a38.92,38.92,0,0,1,11.65-13.16,33.13,33.13,0,0,1,13.86-5.2,49.43,49.43,0,0,1,17.07,0c15.9,3.2,30.6,9.42,43,20.31.42.37.51,1.12,1,2.26-3.07,9.13-9.79,16.27-15.16,24l-24.27-14.46h-10.29l-4.68,4.91c-2.24,8.12,1.26,15.66,4.22,22.3,6.72,15.05,11.84,30.73,18.77,45.68,3.12,6.74,4.69,14.18,7.3,21.17,3.37,9,7.18,17.87,10.61,26.86,2.77,7.26,5.33,14.61,7.86,21.95,5.49,16,4.6,28.94-1.75,42.86a15.28,15.28,0,0,0-.9,3.5c-6.19,11.93-16.66,17.23-27.75,22.36-3,.25-7.11-.43-10.08,1.1-3.38,1.73-7.59,2.11-9.38.79-3.58-2.64-7.12-.76-10.24-2.12A69.37,69.37,0,0,1,1329.55,321v-5Z"/><path d="M381.16,218.9V190.08L375,185.4h-5.09c-.86,3.19-5.13,3.1-7,6.37-1.58,2.81-4.54,4.8-6.61,7.38s-2.1,7.39-8.68,5.8c-4.79-2.7-7.61-10-14.66-12.34v-8.17c2.49-3.3,5.6-6.64,7.82-10.5a75.92,75.92,0,0,1,23-24.38c5.1-3.54,11.71-5.94,18.12-4.44,5.67,1.32,11.95,2.28,16,7.44,3,3.85,7.8,6.11,9.6,11.14.83,2.31,3.33,4.14,3.79,6.45a91.47,91.47,0,0,1,2.09,17.26c.15,50.69.08,101.39.08,152.28-.89.8-1.88,1.69-3.28,2.93-14.9,0-30.32.41-45.71-.12-14-.47-25.06-6.66-31.69-19.53-.43-.82-.68-1.73-1.08-2.57-.13-.29-.46-.48-.95-1,0-5.75.24-11.77,0-17.76-.83-17.19,6.71-31.37,16.2-44.66A230.87,230.87,0,0,1,381.16,218.9Zm1.9,42c-16,11.52-22.45,25.91-19.5,44.86,1.16,1.09,2.85,2.71,4.46,4.24h15Z"/><path d="M191.61,339.6l-3,3c-15.46,0-31.25.6-47-.25A38.37,38.37,0,0,1,119,333.78c-7.14-5.85-8.92-13.86-10-22.08a68.91,68.91,0,0,1,0-17.1c.63-5.24,1.61-10.83,4.08-15.37,4.78-8.81,9.07-17.86,15.24-26,9.74-12.86,22.42-22.7,33-35.06,0-5,.32-10.36-.09-15.7-.4-5-1.56-10-2.3-14.53l-2.61-2.61h-8.66l-17.5,20.13h-2.92L110.79,189c-.57-5.34,4.44-9.41,7.59-13.78a162.75,162.75,0,0,1,19.11-21.32c5.52-5.33,12.21-9.49,20.41-8.86,6.72.51,12.94,2.51,18.1,7.4,6.65,6.31,12.05,13.06,14.52,22.29a32.94,32.94,0,0,1,1,8.56Q191.7,261.36,191.61,339.6Zm-30.69-77.88c-8.91,7.49-16.36,15.42-18.88,26.64-1.74,7.73-2.26,15.44,3.74,21.73h15.14Z"/><path d="M816.41,189.74c10.59-18.48,21.31-36.26,43.16-44.8h10.24a57,57,0,0,0,5.58,2.84c12.2,4.52,17.65,14.7,21.79,25.94a14.32,14.32,0,0,1,.5,4.83c0,54.42,0,108.84,0,164.07-13.18,0-26.18-.09-39.18,0-8.12.08-15.84-.58-23.63-3.85-9.89-4.14-15.62-10.18-18.07-20.13-1.67-6.82-1.72-13.54-1.85-20.38-.1-5.87,2.11-11.2,4.14-16.45,6.93-17.84,17.7-33.17,31.46-46.46,5.56-5.37,10.95-10.92,16.64-16.61V192.55l-4.06-6.92c-9.74-2-14.95,4.77-19.39,10.77-2.55,3.45-5.5,6.13-8,9.62-3.64-2.52-7-4.47-9.83-6.92C822.63,196.31,819.75,193.06,816.41,189.74ZM853.52,310H867V261.92c-8.16,5.85-13.12,13.67-16.8,22.38-2.28,5.38-3.61,11-2.72,17.23Z"/><path d="M635.5,275.24v27.93l5.12,5.13h6.06c4.55-5.55,10.88-9.49,14.31-16.23,1.23-2.43,3.6-5.05,6.84-4l16.42,16.42c2,4-2.88,7.62-5.18,11.24-3.82,6-9.18,11.06-14,16.41-3.48,3.84-8.68,5.52-12.37,8.78-4.86,4.3-11.28,2-16,5.48-4.53-2.69-10.06-2.27-14.69-5.56a42.06,42.06,0,0,1-10.85-10.68,44.29,44.29,0,0,1-8-25.93c.09-38.64-.1-77.27.11-115.91.08-15.78,6.51-28.84,20.57-36.46,8.14-4.41,17.77-6.73,27.11-4.69,7.58,1.65,15,4.59,20.81,10.62s10.54,12.55,13,20.92c1.17,4,.88,7.74,1.12,11.58,1.24,20-8.3,36-19.14,51.52C657.87,254.46,645.57,263.82,635.5,275.24Zm-.06-38.83c13.3-15.13,25-29.61,21.79-50.59-5.89-9.82-9.06-10.71-19.62-5.53-.75,2.16-2.06,4.2-2.08,6.25C635.36,202.82,635.44,219.1,635.44,236.41Z"/><path d="M1067.22,275v28.45l5.61,4.8h5.42c2.08-3.2,6.68-3.78,8.45-8.09,1.42-3.46,5.86-4.94,7.12-9.17.78-2.61,3.68-3.73,6.92-2.44,4.92,3.76,8.1,10.09,14.74,12.56v7.54c-9.86,14.79-20.17,28.81-38.55,35.92-4.8.1-4.8.1-8.72,2.07-.75-.67-1.53-1.94-2.23-1.89-5.22.34-9-2-13.1-5.1-8.57-6.51-13.35-14.32-16.22-24.47-1.57-5.54-1.75-10.87-1.76-16.37,0-36.3.09-72.59-.07-108.89,0-11.92,3.85-21.86,12.4-30.2,5.39-5.25,10.94-9.36,18.71-11,8.73-1.82,17.51-3,24.49.45,12.07,6,21.77,14.67,26.2,28,.1.29.66.48.67.72.3,12.67,1.34,25.25-3.6,37.59-6.19,15.46-15.82,28.35-27.2,40.14C1080.2,262.19,1073.69,268.51,1067.22,275Zm-2.07-37.18c14.65-15.87,25.5-30.89,24.16-51.54-6.37-10.26-9.23-11.1-18.61-6.75-6.84,7.5-5.51,15.49-5.55,23.23,0,8.4,0,16.8,0,25.2Z"/><path d="M501.63,149.3l2.68,2.68c0,5.78.52,11.85-.15,17.79a57.84,57.84,0,0,1-4,16.42c-5.38,12.3-9.24,25.14-13.1,37.88-5.77,19.09-12.74,37.78-18.39,56.85-3.27,11-7.31,21.73-10,33.11H501l3.08,3.22v25.11H423.61c0-8.46-.46-17.11.19-25.68.35-4.54,2.49-9.1,4.15-13.34,5.34-13.66,9.32-27.72,13.8-41.63,4.87-15.12,9.53-30.31,14.42-45.42,3.83-11.84,7.9-23.6,11.78-35.41.29-.87-.05-1.94-.13-3.61h-44v-28Z"/><path d="M558.51,177.44H514.85V149.21h77.48l2.76,2.77c0,1.29-.11,2.64,0,4,1.32,13.16-2.83,25.27-7.06,37.39-4.31,12.32-9.5,24.44-12.58,37.07-4.15,17-11.15,33.1-15.73,49.92-2.7,10-6.25,19.62-9,29.53a44,44,0,0,1-1.79,4.34h43l3.2,3.2v24.17c-8.21,1.51-51,1.91-80.68.72,0-8.25-.46-16.6.17-24.85.35-4.56,2.15-9.13,3.93-13.43,6.69-16.17,10.53-33.24,16-49.77,3.56-10.63,6.93-21.32,10.43-32,4.57-13.89,9.22-27.75,13.75-41.65C559,179.78,558.62,178.72,558.51,177.44Z"/><path d="M58.17,312.2H99.91c1.06,1.73,2.28,3.76,4.74,7.83v19.78c-.77.76-1.48,1.48-2.5,2.5H26.88l-2.53-2.53V140.87c5.07-2.82,10.32-5.66,15.48-8.63a107.45,107.45,0,0,0,10.41-6.44c3.29-2.42,5.46-1.07,7.93,1.72Z"/><path d="M726.58,306.05l8.55,6.24c3.88.58,8.32-1.57,11.16,3.08v25.49c-1.43,6.5-8.14,1.57-10.69,5.5-3.84-3.43-9.06-.06-12.86-2.35-5.38-3.26-11.58-4.91-16.23-9.73-4.11-4.27-8-8.73-9.62-14.2-1.56-5.09-3.06-10.31-3-15.93.17-60.79.1-121.58.1-183.1l24-14.28c4.3-.18,4.28-.09,8.2,2.68v37c6.13,1.49,12.85-1.45,18,3.81v28.21c-1,1-1.67,1.66-2.73,2.73H726.58Z"/><path d="M1712.73,120.9l24.34-14.26c1.9-.27,5.22-.83,7.85,3.06v36.75c6.13,1.44,12.84-1.41,18,3.7v28.29l-2.72,2.72h-14.84V307.89l7.18,4.68h9.82l2.63,2.63v27.54l-11.22,3.6c-3.71-4.43-9.13-.49-13.86-3.19-6.44-3.67-13-6.72-18-12.47-3.77-4.41-5.91-9.38-7.48-15.08-1.71-6.19-1.73-12.23-1.73-18.39C1712.72,238.75,1712.73,180.3,1712.73,120.9Z"/><path d="M756.48,121.34c8.76-6.77,17.61-13.83,30.08-15.25v40.42h15.05l5.21,5.86v24l-6.49,4.89H787V305.09l2.5,5,15.12,3,2,2v28.58c-3.06.93-5.72,2.23-8.46,2.43-2.31.17-4.68-1.27-7.07-1.44a33.74,33.74,0,0,1-20.57-8.93c-10.31-9.08-14.38-19.78-14.27-33.56C756.75,242.08,756.48,181.94,756.48,121.34Z"/><path d="M1128,115c7.8-6.46,17.48-11.16,26.85-16.12l5,2.42V339.83l-5.79,4.81h-21.67l-4.37-7Z"/><path d="M1206.06,342.41h-29.58v-229l26.25-15.24,3.33,3Z"/><path d="M1636.73,342.27l-2.44-2.44V151c10.42-.61,17.36,7.12,26.16,10,12.44-5.88,24.06-14.75,39.56-11.72l2.58,2.58v30.54c-6.46,1.68-13.47,2.17-19.61,5.38-8.94,4.68-16.74,10.37-16.65,22-2.94,3.34-2,7.42-2,11.26q-.06,55.44,0,110.89v10.31Z"/></svg>