<svg id="Livello_1" data-name="Livello 1" xmlns="http://www.w3.org/2000/svg" viewBox="0 0 1800 485.19"><path d="M475.71,260.92V235c4.68-1.72,120.6-2.27,129.62-.54v26.82c-4.49,0-8.82-.13-13.13,0-5.26.2-10.54.43-15.76,1.09-4.12.51-6.76,3.13-7.37,7.35a67.22,67.22,0,0,0-.84,9.17q-.09,37,0,74v7.71h-26.4l-13-17.25c-2,1.41-3.87,2.82-5.83,4.07-38.25,24.4-78.47,28.71-120.08,10.17-28.88-12.87-46.54-36.36-55.85-66-11-35.13-11-70.42,2.65-104.84,15.9-40.2,45.53-64.13,88.7-69.67,30.1-3.86,57.73,3.15,81.86,22.19,1.37,1.09,2.8,2.1,4.73,3.54,3.09-6.55,6-12.81,9.06-19.2h27v92.11H532.87c-.75-2.36-1.51-4.83-2.31-7.29-5.29-16.28-12.23-31.59-25-43.65-18-17-48.23-22.41-68.78-12.23-11.51,5.71-19.48,14.91-25.65,25.86-7.8,13.84-11.85,29-13.28,44.6-1.88,20.68-1.71,41.42,3.84,61.64a106.41,106.41,0,0,0,8.67,22c9.86,18.37,26,27.66,46.46,29.32,10.3.84,20.66.71,30.78-2.34,17.16-5.18,27-16.7,28.81-34.62a172.07,172.07,0,0,0,.65-20.44c-.22-11-5.7-16.53-16.74-17.17-5.93-.34-11.89-.08-17.84-.15C480.38,261.25,478.24,261.06,475.71,260.92Z"/><path d="M131.22,193.65v8.66q0,58.16,0,116.33a76.46,76.46,0,0,0,.34,8.57c.65,5.63,3.32,8.71,8.85,8.83q21.47.43,43,0c5.68-.1,8.6-3.57,9.07-9.35.16-2,.12-4,.12-5.94q0-78.33,0-156.65c0-13.88-2.78-16.65-16.54-16.72-4.8,0-9.59,0-14.87,0V124.55c4.45-1.5,65.48-2,75-.38v8.16c0,62.57.1,125.14-.08,187.71,0,13.59,2.68,17,16.48,16.25,4-.21,7.92.1,11.88.23.37,0,.74.39,1.56.85v22.51c-4.8,1.56-198,2.16-208.92.57a151.71,151.71,0,0,1,0-24.21c5.74,0,11.15,0,16.55,0,11.08,0,14.3-3,14.34-14,.11-29.74,0-59.48,0-89.23a37.36,37.36,0,0,0-.18-4c-.76-7.5-4.41-11.1-11.91-11.46-4.39-.21-8.81,0-13.21-.11-1.72,0-3.42-.27-5.57-.45V193.65Z"/><path d="M1288.42,336.23v23.53c-4.69,1.7-94.48,2.3-105,.64a144.66,144.66,0,0,1,.09-24.16c3.12,0,5.9.07,8.66,0,3.3-.1,6.66,0,9.86-.61,5.6-1.13,7.81-3.82,8.47-9.47a58.09,58.09,0,0,0,.29-6.6c0-22.69.14-45.38-.07-68.07a78.43,78.43,0,0,0-2-17.63c-2.17-8.88-8.44-13.88-17.25-16.38-25.7-7.3-51.86,16.9-52,40.83-.09,21.15,0,42.3,0,63.45a28.61,28.61,0,0,0,.81,5.87c1.25,5.68,4.21,8.33,10.07,8.55,5.67.21,11.36,0,17.54,0v24.5H1062.42v-24.1c2.46-.13,4.6-.33,6.74-.35,5.51-.06,11,.1,16.52-.07,7.24-.22,10.44-3.37,10.91-10.45.08-1.1.07-2.2.07-3.3,0-28.86,0-57.72,0-86.58,0-14.07-4-18-18.08-18.3-5.23-.12-10.47,0-16.64,0V194.69c4.92-1.61,67.37-2.07,77.32-.57v28.47l1.31.45c1.43-1.78,2.9-3.54,4.29-5.36,11.24-14.6,25.19-25.12,43.62-28.87a63.64,63.64,0,0,1,31.35,1.07c15.28,4.59,25.18,14.87,30.2,29.85,3,9.06,3.91,18.49,3.91,28q0,36.35,0,72.7c0,12.57,3,15.61,15.53,15.78C1275.57,336.31,1281.68,336.23,1288.42,336.23Z"/><path d="M1457.31,298.61h22.39c.38.71.92,1.28.94,1.86.45,12.57.32,25.13-3.5,37.26-5.77,18.29-18.89,27.93-39.77,28.69a64.54,64.54,0,0,1-18.22-2.18c-10-2.57-17-8.88-20.35-18.93-.33-1-.8-2-1.84-4.46a28.79,28.79,0,0,1-2,3.63c-11.07,13.35-25.86,19.11-42.61,21.18-10.38,1.27-20.62,1.34-30.79-1.31-23-6-33.25-23.17-32.55-45.74.59-18.93,10-32.27,27.24-39.28,10.94-4.44,22.6-7.1,33.93-10.58,10.06-3.1,20.5-5.36,30.09-9.55,13.78-6,18.49-17.34,15.18-32.06-1.5-6.67-5.09-12-11.25-14.65-18.31-8-36.35-7-53.78,2.93a21.68,21.68,0,0,0-3.21,2.92l7.13,1.08c7.76,1.17,12.93,5.38,14.81,13.08,2.18,9-1,18.12-7.44,22.46-10.1,6.79-28.33,4.82-36.67-4-8.17-8.69-8.47-18.94-5.46-29.65,2.92-10.38,10-17.37,19.12-22.58,10.51-6,22.06-8.75,33.89-10.24,15.4-1.94,30.74-1.54,45.88,2.32a64.08,64.08,0,0,1,22.14,9.95c11.57,8.43,17.77,19.92,18.72,34.11.47,7,.31,14.08.32,21.13,0,22.9,0,45.8,0,68.7a44,44,0,0,0,.72,7.85,7.09,7.09,0,0,0,6.7,6.23,6.4,6.4,0,0,0,7.39-5.21,132.78,132.78,0,0,0,2.77-18.18C1457.67,309.94,1457.31,304.48,1457.31,298.61ZM1397,273.79a19.38,19.38,0,0,0-3.55.71c-13,6-26,11.93-39,18-12,5.61-17.21,14.87-16,28.23,1,11.21,6.67,17.36,17.9,18,20.11,1.18,35.59-10.72,38.64-31C1396.7,296.71,1396.39,285.42,1397,273.79Z"/><path d="M706.51,279.57c.3-20.49,3.61-37.35,13-52.62,12.82-20.79,32.07-32.28,55.4-37.13,20.61-4.29,41.2-3.42,61.15,3.77,30.95,11.16,48.66,33.55,54.42,65.64a100.54,100.54,0,0,1-1.61,43.22c-7.75,30.18-26.66,50.12-56.44,59.14-25.67,7.76-51.38,7.19-76.24-3.32-28.15-11.89-43.48-34-48.23-63.77C707,288.65,706.81,282.7,706.51,279.57ZM754.79,277c.34,5.34.46,11.08,1.13,16.76,1.14,9.65,3.15,19.12,7.81,27.8,4.75,8.85,11.39,15.65,21.25,18.66,19.52,5.94,42.6.63,51.81-24.77.74-2.06,1.46-4.15,2-6.28a131.79,131.79,0,0,0,3.32-43.89c-.89-10.57-2.48-21-7.13-30.67-4.8-10-12.08-17.37-22.86-20.56-18.46-5.47-41.65-.85-51.25,24.94C756.33,251.22,755.52,263.9,754.79,277Z"/><path d="M1742.55,282.1h-114c.32,5.29.07,10.12,1,14.71,1.47,7.27,2.89,14.76,5.85,21.49,5.87,13.34,17,19.68,31.4,20.42a63.56,63.56,0,0,0,11.21-.33c16.23-2,26.94-11,32.31-26.39,1.15-3.28,2.2-6.61,3.35-10.08H1742c.47,24.54-16.44,49.26-39.77,58.33-14.63,5.68-29.9,7.31-45.43,5.9a128.13,128.13,0,0,1-21.45-3.51c-22.72-6.08-39.27-19.81-47.45-42.07-9.81-26.68-10.94-54-.83-80.76,11.52-30.51,34.14-48,66.62-51.75,47.55-5.5,80.89,25.45,88.3,68.25A79.62,79.62,0,0,1,1742.55,282.1Zm-47.24-25.41c-.09-9.77-1.22-18.44-5-26.58-3.4-7.34-8.74-12.71-16.66-15-25.22-7.24-48.8,15.17-43.38,41.56Z"/><path d="M1025.12,212.74c-3.47-3.58-7.4-4.14-11.3-4.29-13.72-.52-24.88,4.7-33.33,15.52-8.88,11.38-12.71,24.62-13,38.77-.37,19.82-.11,39.65-.1,59.47a26,26,0,0,0,.24,4c1.1,7.16,4.15,9.89,11.5,10,6.16.12,12.33,0,18.5,0h6.93v23.55c-4.64,1.68-102.57,2.25-112.47.6V336.24h15c2.64,0,5.3.12,7.92-.12,5.62-.53,8.85-3.56,9.63-9.11a56.34,56.34,0,0,0,.38-7.91q0-41.62,0-83.25c0-15.63-2.81-18.34-18.57-18.38H892.14V193.86H967V218l1.3.61c1.21-1.58,2.29-3.27,3.64-4.72,6.16-6.54,11.71-13.89,18.72-19.35,17.1-13.31,43.77-6.89,55.43,6.45,10.13,11.58,12.37,25.17,7.3,39.54-7.19,20.4-31,20.53-42.18,11.82-6.93-5.38-8.91-12.77-7.62-21.23s6.25-13.84,14.27-16.48C1020,213.91,1022.3,213.46,1025.12,212.74Z"/><path d="M1479.34,147.42V123.75h73.81v8.42q0,93.12,0,186.24a50.62,50.62,0,0,0,.49,8.54c1.14,6.58,4,9.07,10.76,9.24,6.35.17,12.71,0,19.65,0v24.95H1479.21a197.79,197.79,0,0,1,.06-24.94c5.83,0,11.26-.26,16.66.06,8.94.54,14.48-2.12,14.47-14q0-79.9-.05-159.82c0-11.11-4-14.91-15.27-15.09C1490.06,147.35,1485,147.42,1479.34,147.42Z"/><path d="M709.24,336.23v24.45H605.66V336.24c5.64,0,11.06,0,16.49,0,9.77-.08,13-3,13.86-12.76.19-2,.14-4,.14-5.94q0-40,0-79.92a62.51,62.51,0,0,0-.28-7.25c-1.13-9.54-4.55-12.65-14.11-12.84-5.23-.1-10.47,0-16.2,0V193.74h72.19c.11,2.69.32,5.24.32,7.78q0,58.12,0,116.25a56.52,56.52,0,0,0,.61,9.2c1.11,6.54,4,9,10.75,9.22C695.8,336.36,702.15,336.23,709.24,336.23Z"/><path d="M130.86,145.31A26.12,26.12,0,0,1,104.57,171c-14.36-.22-26.37-12.73-25.92-27,.44-13.65,12.69-24.81,26.86-24.48C120,119.9,131.11,131.23,130.86,145.31Z"/><path d="M627.09,145c0-14.5,10.34-25.19,24.68-25.42,14.57-.23,26.1,10.66,26.26,24.8.16,14.95-11.31,26.74-26,26.68C638,171,627.14,159.71,627.09,145Z"/></svg>