<svg id="Livello_1" data-name="Livello 1" xmlns="http://www.w3.org/2000/svg" viewBox="0 0 1800 485.19"><path d="M1290.81,382h-48.33c-1-3.66-2.66-6.69-2.66-9.72-.14-87.7-.11-175.4-.11-263.62,17-4.87,32.32-2.22,48-2.31,17.77,30,35.34,59.52,52.88,89.11,17.23,29.06,34.44,58.14,52.81,89.16,2.81-10.74,1.38-19.87,1.6-28.81.24-9.76,0-19.52,0-29.29q0-15.61,0-31.23V106.88H1443a11.92,11.92,0,0,1,1.44,1.39,3.23,3.23,0,0,1,.83,1.66q.36,132.72.57,265.44c0,1.82-.89,3.63-1.62,6.4h-44.64l-106-177.21-2.77.49Z"/><path d="M467.17,379c3.11-14.16,6.24-28.4,9.69-44.07,29.62,3.81,55.74-2.1,78.17-19.93,15.66-12.45,25.84-28.77,31.59-48.09,12.1-40.63-8.36-82.87-38.9-102.09-36.26-22.82-77.11-20.4-109.06,5.13-37.54,30-44.44,66.44-23.65,122.42l-38.65,24.26c-36.89-53.35-26.36-131,21.36-175.48,52-48.47,127.65-53.79,185.64-9.36,54.6,41.83,71.9,119.56,35.91,182.14C590,364.75,524.13,396.48,467.17,379Z"/><path d="M1035.84,336.66c22.39,0,42.45-.19,62.5,0s40-1,61.16.91v44.14H987.73a13.11,13.11,0,0,1-1.36-1.58,3.57,3.57,0,0,1-.71-1.73q-.31-126.78-.56-253.57c0-4.54.1-9.08.39-13.61.07-1.17,1-2.28,1.57-3.41,17.67-2.87,151.41-2.69,167.89.45,3,13.52,2.55,27.31,0,43-39.29,2.08-78.08-.21-117.8,1.35-2.72,23.19-.53,45.65-1.46,70.07,35.34,1.15,69.46-.14,104.53.81v45.65H1038c-4,11.83-1.7,22.85-2.11,33.6C1035.52,313.08,1035.84,323.44,1035.84,336.66Z"/><path d="M914.36,179.47c-5.19-31.32-20.59-56.37-52.39-66.92a134.47,134.47,0,0,0-38.07-6.36c-31.19-.89-62.43-.33-93.64-.25-4.38,0-8.76.57-13,.87-.76,3-1.63,4.84-1.63,6.67q.21,132.64.59,265.27a3.54,3.54,0,0,0,.85,1.65,16.11,16.11,0,0,0,1.23,1.42h47.57v-97c18.11,0,33.61.38,49.09-.12,11.62-.38,23.35-1,34.76-3.1,25.17-4.55,43.69-18.22,55.41-41.51A97.26,97.26,0,0,0,914.36,179.47Zm-51.28,31.27c-3.32,15.78-17,26.86-33.69,27.34-20.09.58-40.21.14-62.4.14-.2-14.74-.46-28.8-.56-42.86-.09-13.58,0-27.17,0-43.07,23.27,0,44-.52,64.74.19,14.27.48,24,8.63,29.43,21.84C865.51,186.21,865.63,198.59,863.08,210.74Z"/></svg>