<svg id="Livello_1" data-name="Livello 1" xmlns="http://www.w3.org/2000/svg" viewBox="0 0 1800 485.19"><defs><style>.cls-1{fill:#3eb1ff;}</style></defs><path d="M948.83,279.4c2.84,59.83-45.71,122.5-117.91,130.1-57.58,6.06-104.37-13.8-134.84-63.66-38.87-63.63-13.53-147.88,52.85-182,70-36,155.94-8,188.85,61.55C945.76,242.24,948.85,257.34,948.83,279.4Zm-73.65,5.74c.49-39.75-23-67.14-57.09-71.15-30.28-3.57-58.54,18-64.8,50.68C748.18,291.35,755.07,314.9,777,332c19.06,14.86,40.72,17.1,62.56,6.84C863.91,327.42,874.31,306.63,875.18,285.14Z"/><path class="cls-1" d="M1073.59,132.29c3.66,3.35,7.91,7.46,12.41,11.28,11.46,9.76,24.19,15.92,39.85,15s28.74-6.76,35.64-21.28c7.35-15.45,4.44-30.63-5.82-44-10.84-14.08-25.41-22.81-42.88-26.13-33.84-6.41-63.85.82-88.68,25.71-7.18,7.19-10.22,15.81-10,25.92.35,14.87,4.73,20.7,19.15,24.64,2.25.61,4.45,1.37,7,2.15-8.94,13.13-21.25,15.08-31.74,5.6-6.31-5.71-9.1-13.05-9.33-21.5-.72-26.56,11.46-46.65,32.67-61,36.44-24.7,93.07-21.26,125.3,8.55,37.42,34.6,39.27,90,5.77,122.46-6.7,6.49-12.32,14.09-19.19,22,4.35,2.5,6.67,4.58,9.35,5.27,29.14,7.48,51.52,41.58,41.06,83a72.78,72.78,0,0,1-19.89,34.93c-5.76,5.62-11.64,11.12-17.48,16.65-19.74,18.7-38.76,38-54.19,60.6-2.47,3.62-5.51,6.85-8.69,10.76-11.85-5.26-22.48-11.14-33.84-14.74-18.6-5.9-37.53-11-56.61-15.12-11.74-2.53-23.08-.08-31.16,10.51-1.3,1.7-3.92,2.39-6.24,3.73-5.17-7.09.17-11,2.79-15.24,11.54-18.84,23.38-37.5,34.7-56.48,2.69-4.51,3.8-10,5.86-15.6-4.54-3.34-7.94-6.25-11.71-8.57-37.91-23.26-42.25-74.9-10.57-106.83,16.24-16.36,35-30.18,51.9-45.94C1050.62,157.82,1061,145.63,1073.59,132.29Zm57.61,238c12.58-26.7,5.82-60.38-14.37-77.53-8.8-7.48-19.25-11.26-30.68-9.77-30.4,4-50.15,21.85-63,48.3,19.4,4.89,38.28,8.14,56,14.54S1113.35,361.76,1131.2,370.31Zm2.88-143.53c-11.26.88-20.67,2.63-30,2.15-19.71-1-36.74-9.33-51.85-21.77-6.45-5.3-13-10.51-19.43-15.74-7.45,6.06-8.74,13.06-8.12,20,1.5,16.86,6.93,32.25,19.09,44.75,15,15.43,32.78,18.76,52.08,9.48C1112.81,257.52,1124.68,244.44,1134.08,226.78Z"/><path d="M526.76,337.08v68.13H454.93c-.6-3.85-1.83-8.07-1.84-12.28q-.16-113.1,0-226.2c0-3.46.71-6.91,1.26-11.91,4.33-.66,8.6-1.93,12.85-1.87,37.2.56,74.42.91,111.59,2.28A103.74,103.74,0,0,1,629,170c30.11,18.15,44.12,51.68,37.28,88.58-8.19,44.25-39.64,71.45-87.41,75.27C562.35,335.17,545.82,335.92,526.76,337.08Zm1.14-59.82c14.42,0,28.44,1.32,42.1-.35,15.11-1.85,24.63-14.57,25-29.38.36-15-7.89-28.07-21.36-30.65-15.12-2.9-30.52-1.7-45.72-.8Z"/><path d="M1353.39,405.05h-73.8c-.34-61.95.05-122.94-.23-185.62-24.43-2.64-48,.27-73.37-2.06-2.36-20.93-.86-41.15-.79-60.82,11.65-4.64,200.32-6,222.75-1.71,1,19.7.49,39.92.12,61.82-25,3.56-49,.49-74.68,2Z"/><path d="M406.65,153.81h21.72V259.09H407.68C403.73,247.88,402.84,173.11,406.65,153.81Z"/><path d="M371.46,182.81h22.42c2.46,25.36,1.52,50,.54,76.11h-23Z"/><path d="M371.76,154h21.78v22.15H371.76Z"/></svg>