<svg id="Livello_1" data-name="Livello 1" xmlns="http://www.w3.org/2000/svg" viewBox="0 0 1800 485.19"><path d="M466.68,330.56c-.45,7.25-.78,12.55-1.18,19-5.83.78-10.55,1.93-15.28,2-23.5.16-47,.09-70.49,0-17.41-.09-18.05-.87-18.07-19.16,20-13.81,20-13.81,20-38.79,0-53.75-.13-107.5.11-161.24.05-11.63-.73-22-12.3-28.73-8.92-5.19-6.25-13.56-4.51-21,1.45-1.09,2.43-2.46,3.39-2.44,40.66.67,81.42.13,122,2.8C510.5,84.27,527.07,96.6,539,113.61c21.32,30.32,14.66,73.21-14.87,96-4.28,3.31-8.63,6.54-13.22,10,13.66,32.18,26.61,63.38,40.28,94.28,2.35,5.31,7.11,10,11.79,13.73,7.46,5.88,9.89,12.18,4.08,23a354.82,354.82,0,0,1-63-.33c-4.71-.46-10.14-8.69-12.6-14.46-11.09-26.06-21.26-52.5-31.67-78.84-2.34-5.92-4.32-12-6.47-18l-4.18.64c-.8,3.71-2.23,7.41-2.29,11.14-.28,16.67.58,33.4-.41,50C445.61,315.54,448.53,326.71,466.68,330.56Zm-16.26-222c-5.76,19.94-4.41,87.81,2.15,99.89,9.81-.19,17.93-4.34,22.25-13.25,12.31-25.34,11.86-51.14-.38-76.29C469.83,109.49,461.82,103.88,450.42,108.6Z"/><path d="M1151,330.94V287.67c0-50.62-.12-101.24,0-151.87,0-9.57-1.28-17.51-9-24.83-10.3-9.79-8.22-17.45,5.35-23.81,12.27-5.76,24.87-10.89,37.54-15.75,14-5.37,20-1.71,20.34,13.06.52,24.69.18,49.39.2,74.08v20.12c5.12-2.26,7.37-2.84,9.15-4.1,22.17-15.71,44.42-13,62,7.62,13.51,15.82,17.65,35.25,19.66,54.95,2.54,24.91-.22,49.27-12.5,71.83C1257.5,357.35,1194.25,368.43,1151,330.94Zm71.34-.83c3.42-4.69,8.41-9,10.24-14.43,10.86-32,11-64.27-.8-96.16-2.6-7.07-6.82-14.29-16.06-12.25-8.88,2-10.29,10-10.4,17.61-.27,19.15-.36,38.31-.1,57.47.15,11.08.76,22.19,1.83,33.22C1207.74,322.7,1210.8,328.7,1222.35,330.11Z"/><path d="M1054.22,177.94c4.91-1.25,6.26-1.25,7.16-1.88,26.88-18.87,56.76-13,70.66,16.76,18.45,39.51,20.18,80.69-1.9,119.46-28.8,50.57-84.29,47-121.7,26.75-8.32-4.51-9.5-12.13-9.46-20.6.13-27.83,0-55.66,0-83.49,0-33.39-.13-66.79.07-100.19.06-9.57-1-17.52-9.32-24.64-8.88-7.63-7.77-15.66,2.28-20.74A436.27,436.27,0,0,1,1038,69.63c8.91-3.3,15.24,1.73,15.85,12.34.82,14.18.35,28.43.38,42.66C1054.24,141.74,1054.22,158.86,1054.22,177.94Zm14.15,151.79c9.64-3.78,13.17-12.44,15.4-21.42a162,162,0,0,0-.4-80.46,47.15,47.15,0,0,0-5-11.88c-3.17-5.41-7.67-11.78-14.36-8.24-4.5,2.39-9,8.94-9.43,14-1.28,13.44-.48,27.1-.33,40.67.19,16.63.32,33.28,1,49.9C1055.52,320.65,1057.7,328.37,1068.37,329.73Z"/><path d="M755.06,353.62c0,8.12.26,14.76-.06,21.37-.41,8.18,1.63,14.58,10.07,17.68,6.84,2.52,9.34,7.73,8.07,14.72-1.42,7.86-7.48,9.1-14,9.13-20.38.09-40.77.4-61.14-.13-12.54-.33-13.34-2-14.16-19.29,16.38-6,17.7-19.69,17.43-35.44-.7-42-.39-84-.13-126,.07-11-1.58-20.11-10.66-28-8.86-7.75-7.51-14.93,3.23-20.2,13.83-6.78,28.33-12.21,42.56-18.18,10.23-4.3,15.92,3,21.43,9.13,7.93-3.58,14.86-8.41,22.42-9.78,20.51-3.72,35.93,5.46,47.32,22.11,24.24,35.43,24,98.44-.79,133.54-11.62,16.41-27.66,26.19-48,28.12C772,353,765.23,353.09,755.06,353.62Zm35.65-78.92c-1.72-14.34-2.21-26.09-4.8-37.35a65.38,65.38,0,0,0-10.28-23.22c-6.41-8.84-16.07-6.71-19.53,3.66-1.52,4.55-1.82,9.69-1.81,14.55q.13,37.77.78,75.53c.08,4.88.24,10,1.74,14.55,3.39,10.26,12.91,12.23,19.77,4.08a32,32,0,0,0,6.59-12.94C786.29,299.91,788.56,286.06,790.71,274.7Z"/><path d="M903.25,169.18v23.57q0,52.79,0,105.57c0,14.23,3,18.82,11.77,18.54,9-.28,15.72-7.61,15.88-19.14.35-25.3.72-50.65-.46-75.91-.37-7.9-5.84-15.52-8.7-23.37-2.14-5.86-3.85-11.89-6-18.7,22-7.88,42-8.61,64.56-9.19.5,7.11,1.31,13.54,1.33,20q.18,57.4,0,114.82c0,8.72.6,16.2,8.38,23.07,9.72,8.57,6.64,18.68-5.71,21.53-11.37,2.63-23.1,3.88-34.73,5.18-6,.67-12.19.12-19.13.12-1.57-5.35-3-10.31-4.9-16.74-5.75,3.82-10.23,6.87-14.79,9.8-24.66,15.85-52.86,5.09-58.38-23.74-2.74-14.29-1-29.44-1.23-44.2-.35-22.16-.34-44.34-1.2-66.48-.18-4.46-2.88-9.26-5.57-13.1-11.77-16.82-9.58-22.72,11.2-26C870,172.45,884.63,171.3,903.25,169.18Z"/><path d="M283.43,311h13.15c3.62,21.73,1,28.49-13.56,36.22-17.87,9.5-34.81,6.24-52.36-10.77-3.13,2.19-6.48,4.5-9.78,6.88-18.35,13.18-44.58,12.62-58-1.27-15-15.42-16.66-43.94-1.53-61.12,8.33-9.45,19.65-16.65,30.54-23.38,11.46-7.07,24-12.36,36.54-18.65v-47.4c-17.94-5.27-22.28-2.8-23.19,12.34-.29,4.87,0,9.77,0,16.34l-41.36,13.93c-12.6-19-8.2-43.29,9.21-56,23.7-17.26,66.38-18.74,91.71-3.6,13.79,8.25,18.54,20.89,18.65,35.87.21,27.16.07,54.33.07,81.49C283.44,298,283.43,304.12,283.43,311ZM229.6,265.64c-13.2,4-19.84,10.56-23.61,18.92-2.33,5.19-2.59,12.07-1.58,17.81,1.34,7.63,7.48,11.16,15.27,10.3,7.59-.83,10.1-5.89,10-13.05C229.46,289.22,229.6,278.81,229.6,265.64Z"/><path d="M1665.31,336c-11.34,9.64-22.49,16-37.18,16.61-34,1.36-45.3-28.41-41.47-50.33,2.39-13.69,9.07-25.84,21.48-33.19,14.84-8.79,30.21-16.67,45.34-25,3.73-2,7.44-4.15,12.49-7,0-12.09.34-24.34-.13-36.56-.29-7.59-4-13.05-12.7-12.68-8.05.34-12.5,5.12-13.24,12.81-.58,6-.11,12.17-.11,19.74l-41.64,13.79c-11.48-22.72-5.94-47,13.12-57.86,26.86-15.29,55.19-16.87,83.65-4.67,14.82,6.35,23,17.95,22.9,34.8-.19,27.78,0,55.55,0,83.33v20.94l13.37,1.05c4.25,20.74,2.11,27.07-11.59,34.7C1701.68,356.55,1683.94,353.41,1665.31,336Zm.64-70c-22.15,8.78-28.86,18.56-26.74,33.82,1.11,8,5.52,12.3,13.12,12.74,7.9.46,13.07-3.92,13.49-11.84C1666.37,290,1666,279.16,1666,266Z"/><path d="M67.85,331.31c15.34-5,16.91-17.38,16.74-32-.6-51.85-.46-103.71-.08-155.56.11-14.05,0-27.2-13.68-35.82-1.78-1.13-2.32-4.22-4-7.44,2.12-3.12,3.67-8.16,6.89-9.7,16.11-7.7,32.48-15,49.13-21.39,8.18-3.16,13,2.82,14.74,9.94,1.29,5.27.7,11,.7,16.58q0,104.62,0,209.26c0,8.53-1,16.91,7.59,23.29,7,5.18,5,13,1.43,22.36-9.76.25-20,.61-30.3.74-11.12.15-22.25.28-33.36.06C68.46,351.31,67.34,349.8,67.85,331.31Z"/><path d="M1367.37,351.46c-23.1,0-45.93.66-68.7-.25-13.14-.53-10.45-10.92-9.61-20.46,14-4.35,14.78-15.29,14.68-27.91-.45-55-.27-110.07-.11-165.11,0-10.71-.46-20.09-9.86-28.23-8.7-7.55-7.09-15.29,3.38-20.5a464.8,464.8,0,0,1,44.27-19c9.83-3.68,15.27.26,16.64,10.72.64,4.87.33,9.88.33,14.83q0,104.82-.09,209.65c0,8.15-.56,16,7.09,21.75C1374.26,333.67,1371.74,341.75,1367.37,351.46Z"/><path d="M683.06,244.16c-25.07,4.3-50-1.67-73.58,3.89-5,14.86-1.75,27.52,2.62,39.63,8.84,24.47,31.65,29.87,51.19,12.7,2.29-2,4.55-4.06,8.28-7.38l14.64,10.55c-8.33,25.92-24.59,42.27-49.77,48.39-24.46,5.95-45-2.05-61-21.42-31-37.51-32.85-97.08-4.29-136.15,16.39-22.42,44.06-33.6,67.78-27.39C671.79,175.59,691.09,208.42,683.06,244.16Zm-50.9-16.72c-.61-11,.1-19.61-2-27.48-1.12-4.2-7.1-9.87-10.84-9.83-3.93,0-9.7,5.4-11.27,9.68-2.63,7.18-2.56,15.34-4,25.82Z"/><path d="M1567.37,297.61l12.27,9.89c-.16,2.92.41,5.65-.52,7.71-9.21,20.38-23.71,34.61-46.74,37.78-24.84,3.43-45.16-5.11-60.19-25.05-27.76-36.82-22-108.85,11-141.42,12.86-12.71,28.61-19.45,46.2-21.52,24.24-2.85,45.23,12,51.67,35.64,4,14.89-2.62,29.05-15.58,33.07-13.46,4.16-26.3-3.2-31.38-18.64-2.11-6.39-2.56-13.32-4.54-19.76-.79-2.57-3.68-4.49-5.69-6.81-11.47,4.23-13.49,14.74-13.61,22.95a684.85,684.85,0,0,0,3.13,73.72c.68,7.2,5.78,15.25,11.2,20.49C1536.81,317.51,1549.11,314.91,1567.37,297.61Z"/><path d="M1382,351.51c-1.8-4.1-3.32-6.23-3.62-8.53-.48-3.58-.13-7.27-.13-11.87,13.55-4.88,15.16-15.59,14.78-28.2-.68-22.19-.34-44.42-.14-66.63.11-11.3-.3-21.47-10.58-29.79-7.87-6.36-6.55-15,2.53-19.45,14.91-7.31,30.51-13.27,46.11-19,3.51-1.3,8.2.55,14.14,1.13.6,7.26,1.58,13.79,1.61,20.31q.21,57.39,0,114.76c0,9.36.11,17.89,9.24,24.61,3.51,2.58,4.45,11,3.52,16.26-.49,2.75-7.51,6-11.66,6.14C1426.29,351.84,1404.72,351.51,1382,351.51Z"/><path d="M1420.1,70.88c17.7.2,30.63,12.71,30.81,29.82s-14.9,31.9-31.7,31.31c-17.13-.6-30.55-13.87-30.71-30.36C1388.32,83.67,1401.67,70.67,1420.1,70.88Z"/></svg>